name rise37.2698peak67.6939fall79.5734.mot
datacolumns 19
datarows 21
range 4.02999000000000 4.06331600000000
endheader
time	ground_force1_vx	ground_force1_vy	ground_force1_vz	ground_force1_px	ground_force1_py	ground_force1_pz	ground_force2_vx	ground_force2_vy	ground_force2_vz	ground_force2_px	ground_force2_py	ground_force2_pz	ground_torque1_x	ground_torque1_y	ground_torque1_z	ground_torque2_x	ground_torque2_y	ground_torque2_z	
4.02999000000000	-32.90424100000000	796.19436099999996	46.48737700000000	0.14252600000000	0.00000000000000	0.08285200000000	-1.81010500000000	10.72503100000000	0.66363400000000	0.00000000000000	0.00000000000000	0.00000000000000	0.00000000000000	18.83351000000000	0.00000000000000	0.00000000000000	0.09147500000000	0.00000000000000	
4.03166600000000	-33.37760800000000	795.17565999999999	46.41185000000000	0.14165800000000	0.00000000000000	0.08280600000000	-2.42697100000000	15.21134400000000	0.90945500000000	0.00000000000000	0.00000000000000	0.00000000000000	0.00000000000000	18.75863400000000	0.00000000000000	0.00000000000000	0.13558700000000	0.00000000000000	
4.03332400000000	-33.86374100000000	794.05759999999998	46.31969500000000	0.14079900000000	0.00000000000000	0.08275600000000	-3.07963300000000	20.22939300000000	1.17544000000000	0.00000000000000	0.00000000000000	0.00000000000000	0.00000000000000	18.68214500000000	0.00000000000000	0.00000000000000	0.18608300000000	0.00000000000000	
4.03498200000000	-34.36302900000000	792.83785699999999	46.21051400000000	0.13994800000000	0.00000000000000	0.08270200000000	-3.74518400000000	25.67975500000000	1.45375700000000	0.34055700000000	0.00000000000000	-0.10225800000000	0.00000000000000	18.60412900000000	0.00000000000000	0.00000000000000	0.35426100000000	0.00000000000000	
4.03666500000000	-34.87583000000000	791.51413100000002	46.08393400000000	0.13910600000000	0.00000000000000	0.08264400000000	-4.39919200000000	31.44747700000000	1.73579500000000	0.34544600000000	0.00000000000000	-0.10217600000000	0.00000000000000	18.52467300000000	0.00000000000000	0.00000000000000	0.45288400000000	0.00000000000000	
4.03831600000000	-35.40245900000000	790.08414500000003	45.93961000000000	0.13827200000000	0.00000000000000	0.08258300000000	-5.01749300000000	37.41184600000000	2.01280300000000	0.34996700000000	0.00000000000000	-0.10210000000000	0.00000000000000	18.44386200000000	0.00000000000000	0.00000000000000	0.55884200000000	0.00000000000000	
4.03998200000000	-35.94318800000000	788.54564900000003	45.77722200000000	0.13744500000000	0.00000000000000	0.08251800000000	-5.57791800000000	43.45630400000000	2.27651700000000	0.35415700000000	0.00000000000000	-0.10203100000000	0.00000000000000	18.36177600000000	0.00000000000000	0.00000000000000	0.66991900000000	0.00000000000000	
4.04165800000000	-36.49824400000000	786.89641800000004	45.59648200000000	0.13662600000000	0.00000000000000	0.08244900000000	-6.06171400000000	49.47719400000000	2.51969300000000	0.35804400000000	0.00000000000000	-0.10196900000000	0.00000000000000	18.27849700000000	0.00000000000000	0.00000000000000	0.78384100000000	0.00000000000000	
4.04332200000000	-37.06780100000000	785.13425299999994	45.39713100000000	0.13581400000000	0.00000000000000	0.08237700000000	-6.45453200000000	55.39041100000000	2.73649600000000	0.36165500000000	0.00000000000000	-0.10191400000000	0.00000000000000	18.19410100000000	0.00000000000000	0.00000000000000	0.89842600000000	0.00000000000000	
4.04498900000000	-37.65198400000000	783.25697900000000	45.17894100000000	0.13500800000000	0.00000000000000	0.08230100000000	-6.74692500000000	61.13550900000000	2.92271700000000	0.36501000000000	0.00000000000000	-0.10186700000000	0.00000000000000	18.10866000000000	0.00000000000000	0.00000000000000	1.01170200000000	0.00000000000000	
4.04665700000000	-38.25085900000000	781.26245100000006	44.94171600000000	0.13420800000000	0.00000000000000	0.08222200000000	-6.93437300000000	66.67722800000000	3.07582700000000	0.36812800000000	0.00000000000000	-0.10182900000000	0.00000000000000	18.02224500000000	0.00000000000000	0.00000000000000	1.12199200000000	0.00000000000000	
4.04831700000000	-38.86443300000000	779.14854700000001	44.68529500000000	0.13341400000000	0.00000000000000	0.08213800000000	-7.01690600000000	72.00469800000000	3.19488000000000	0.37102500000000	0.00000000000000	-0.10179800000000	0.00000000000000	17.93492300000000	0.00000000000000	0.00000000000000	1.22795700000000	0.00000000000000	
4.04999800000000	-39.49265000000000	776.91317600000002	44.40954900000000	0.13262400000000	0.00000000000000	0.08205200000000	-6.99842200000000	77.12877600000000	3.28030500000000	0.37371400000000	0.00000000000000	-0.10177500000000	0.00000000000000	17.84675500000000	0.00000000000000	0.00000000000000	1.32860500000000	0.00000000000000	
4.05165000000000	-40.13538900000000	774.55427399999996	44.11438600000000	0.13183800000000	0.00000000000000	0.08196200000000	-6.88580700000000	82.07804600000000	3.33361900000000	0.37620800000000	0.00000000000000	-0.10176100000000	0.00000000000000	17.75779900000000	0.00000000000000	0.00000000000000	1.42327100000000	0.00000000000000	
4.05331800000000	-40.79246200000000	772.06980699999997	43.79974800000000	0.13105500000000	0.00000000000000	0.08186900000000	-6.68797000000000	86.89405900000000	3.35710700000000	0.37851800000000	0.00000000000000	-0.10175500000000	0.00000000000000	17.66810900000000	0.00000000000000	0.00000000000000	1.51156600000000	0.00000000000000	
4.05498300000000	-41.46360800000000	769.45777199999998	43.46561400000000	0.13027500000000	0.00000000000000	0.08177200000000	-6.41488200000000	91.62632900000000	3.35348500000000	0.38065400000000	0.00000000000000	-0.10175600000000	0.00000000000000	17.57773400000000	0.00000000000000	0.00000000000000	1.59331900000000	0.00000000000000	
4.05666700000000	-42.14849300000000	766.71619999999996	43.11200000000000	0.12949600000000	0.00000000000000	0.08167300000000	-6.07669700000000	96.32754199999999	3.32559400000000	0.38262400000000	0.00000000000000	-0.10176600000000	0.00000000000000	17.48671700000000	0.00000000000000	0.00000000000000	1.66850900000000	0.00000000000000	
4.05831800000000	-42.84670800000000	763.84315400000003	42.73895800000000	0.12871800000000	0.00000000000000	0.08157000000000	-5.68301100000000	101.04931500000001	3.27613900000000	0.38443600000000	0.00000000000000	-0.10178300000000	0.00000000000000	17.39509800000000	0.00000000000000	0.00000000000000	1.73719500000000	0.00000000000000	
4.05999100000000	-43.55776600000000	760.83673399999998	42.34658000000000	0.12794000000000	0.00000000000000	0.08146500000000	-5.24230200000000	105.83875399999999	3.20747300000000	0.38609900000000	0.00000000000000	-0.10180900000000	0.00000000000000	17.30291000000000	0.00000000000000	0.00000000000000	1.79945600000000	0.00000000000000	
4.06165600000000	-44.28109700000000	757.69507799999997	41.93499300000000	0.12716100000000	0.00000000000000	0.08135600000000	-4.76154700000000	110.73592300000000	3.12146000000000	0.38762000000000	0.00000000000000	-0.10184100000000	0.00000000000000	17.21018200000000	0.00000000000000	0.00000000000000	1.85533900000000	0.00000000000000	
4.06331600000000	-45.01605500000000	754.41636400000004	41.50436600000000	0.12638100000000	0.00000000000000	0.08124600000000	-4.24602700000000	115.77226800000000	3.01938800000000	0.38900500000000	0.00000000000000	-0.10188100000000	0.00000000000000	17.11693800000000	0.00000000000000	0.00000000000000	1.90482100000000	0.00000000000000	
